HIERARCHY
ROOT Hips
{
	OFFSET -0.179506 -22.333345 2.821913
	CHANNELS 6 Xposition Yposition Zposition Zrotation Yrotation Xrotation 
	JOINT LeftUpLeg
	{
		OFFSET 6.951974 -9.140623 -0.681533
		CHANNELS 3 Zrotation Yrotation Xrotation
		JOINT LeftLeg
		{
			OFFSET 3.427654 -37.519855 -0.449580
			CHANNELS 3 Zrotation Yrotation Xrotation
			JOINT LeftFoot
			{
				OFFSET -1.359570 -39.796059 -4.369333
				CHANNELS 3 Zrotation Yrotation Xrotation
				JOINT LeftToe
				{
					OFFSET 2.635814 -5.579078 11.928840
					CHANNELS 3 Zrotation Yrotation Xrotation
					End Site
					{
						OFFSET 0.000000 0.000000 0.000000
					}
				}
			}
		}
	}
	JOINT RightUpLeg
	{
		OFFSET -6.767048 -9.052170 -0.431982
		CHANNELS 3 Zrotation Yrotation Xrotation
		JOINT RightLeg
		{
			OFFSET -3.829005 -38.256897 -0.885003
			CHANNELS 3 Zrotation Yrotation Xrotation
			JOINT RightFoot
			{
				OFFSET 1.577377 -39.841461 -4.231180
				CHANNELS 3 Zrotation Yrotation Xrotation
				JOINT RightToe
				{
					OFFSET -2.537174 -4.814398 12.334795
					CHANNELS 3 Zrotation Yrotation Xrotation
					End Site
					{
						OFFSET 0.000000 0.000000 0.000000
					}
				}
			}
		}
	}
	JOINT Spine
	{
		OFFSET -0.253288 10.896323 -2.669631
		CHANNELS 3 Zrotation Yrotation Xrotation
		JOINT Spine1
		{
			OFFSET 0.548704 13.518043 0.109247
			CHANNELS 3 Zrotation Yrotation Xrotation
			JOINT Spine2
			{
				OFFSET 0.145701 5.292222 2.542457
				CHANNELS 3 Zrotation Yrotation Xrotation
				JOINT Neck
				{
					OFFSET -0.277840 21.387037 -4.285703
					CHANNELS 3 Zrotation Yrotation Xrotation
					JOINT Head
					{
						OFFSET 0.515184 6.496960 5.134897
						CHANNELS 3 Zrotation Yrotation Xrotation
						End Site
						{
							OFFSET 0.000000 0.000000 0.000000
						}
					}
				}
				JOINT LeftShoulder
				{
					OFFSET 7.884473 12.174932 -3.408961
					CHANNELS 3 Zrotation Yrotation Xrotation
					JOINT LeftArm
					{
						OFFSET 9.097692 3.046888 -0.886815
						CHANNELS 3 Zrotation Yrotation Xrotation
						JOINT LeftForeArm
						{
							OFFSET 25.961220 -1.277207 -2.745643
							CHANNELS 3 Zrotation Yrotation Xrotation
							JOINT LeftHand
							{
								OFFSET 24.923361 0.898606 -0.117091
								CHANNELS 3 Zrotation Yrotation Xrotation
								End Site
								{
									OFFSET 0.000000 0.000000 0.000000
								}
							}
						}
					}
				}
				JOINT RightShoulder
				{
					OFFSET -8.175920 11.883285 -3.861528
					CHANNELS 3 Zrotation Yrotation Xrotation
					JOINT RightArm
					{
						OFFSET -9.601238 3.255117 -0.914307
						CHANNELS 3 Zrotation Yrotation Xrotation
						JOINT RightForeArm
						{
							OFFSET -25.374195 -1.332924 -2.140099
							CHANNELS 3 Zrotation Yrotation Xrotation
							JOINT RightHand
							{
								OFFSET -25.529810 0.777228 -0.555919
								CHANNELS 3 Zrotation Yrotation Xrotation
								End Site
								{
									OFFSET 0.000000 0.000000 0.000000
								}
							}
						}
					}
				}
			}
		}
	}
}
MOTION
Frames: 10
Frame Time: 0.033333
109.903320 -126.273895 89.843208 -135.884467 -0.690938 88.345575 -2.629879 -1.936867 -5.686654 -7.767695 -2.469815 26.578839 5.993093 21.038576 -28.687480 nan nan nan -3.311570 0.864632 -11.051644 0.818616 -7.975816 50.249847 1.122355 -13.524950 -21.747216 nan nan nan -3.141412 0.319462 15.381307 1.302737 -3.863242 6.994550 0.101712 -0.870612 -3.131484 1.139017 2.990949 -0.118544 2.714581 3.466034 -1.606065 -25.598236 -3.850944 -0.787462 -55.678181 -8.583621 17.541370 6.521674 -27.231750 -3.281323 -0.939444 -16.731760 1.554942 24.276488 7.181030 -0.341983 58.695526 -4.635253 15.877881 -9.360818 31.545251 4.032930 2.693345 14.848855 0.303612 
108.800491 -125.189301 89.624763 -135.391560 -0.516834 88.132270 -2.622776 -1.504016 -5.045571 -7.606832 -2.397794 27.668458 5.470679 20.758217 -29.554516 nan nan nan -3.385915 0.861605 -13.005163 1.020041 -8.266965 50.068776 1.416527 -13.414714 -22.990882 nan nan nan -2.909059 -0.350332 16.264710 1.269703 -3.925258 6.199503 0.164403 -1.105595 -2.651238 0.985564 3.316286 -0.247410 2.698827 3.544162 -1.721521 -25.388672 -4.011106 -1.087165 -55.375156 -9.600802 17.581117 6.712933 -28.195568 -4.207946 1.086085 -17.052596 1.719100 24.180425 6.953015 -0.430323 58.636787 -5.009952 15.706968 -8.680995 30.618655 4.318713 2.264619 14.516373 0.886525 
107.712616 -124.088493 89.376915 -134.854410 -0.296074 87.852576 -2.494747 -1.420517 -4.319876 -7.698910 -2.788384 28.949205 5.040331 20.618045 -30.333244 nan nan nan -3.469387 0.988508 -14.822340 1.349496 -8.768864 49.686570 1.587035 -13.555587 -24.283337 nan nan nan -2.729384 -0.977878 17.120669 1.337183 -4.034380 5.760027 0.290890 -1.315058 -2.444206 0.789398 3.699588 -0.324684 2.752777 3.562021 -1.762012 -25.336078 -4.132894 -1.173522 -54.942688 -10.953102 17.226562 6.638182 -28.873178 -4.625618 1.970752 -18.280054 1.451617 24.109592 6.807828 -0.311153 58.504564 -5.436821 15.436637 -8.354712 29.827164 4.981867 2.553808 14.927476 0.578468 
106.630714 -122.994766 89.054375 -134.400588 -0.110001 87.641432 -2.383607 -1.501078 -3.698528 -7.929084 -3.341411 30.328040 4.759874 20.744803 -30.961138 nan nan nan -3.649269 1.160695 -16.810387 1.647645 -9.247770 49.345528 1.564165 -13.864673 -25.110765 nan nan nan -2.577309 -1.474985 17.900918 1.401934 -4.082825 5.323162 0.412308 -1.530697 -2.141776 0.578962 3.837890 -0.452753 2.842834 3.743025 -1.800054 -25.415961 -4.553843 -1.241652 -54.419295 -11.956151 17.101944 7.187046 -30.444237 -5.925061 2.030299 -18.082016 1.488878 24.124192 6.786852 -0.370611 58.195563 -6.194768 15.166529 -8.137169 29.337014 4.975355 3.457464 14.919826 0.539358 
105.568199 -121.870369 88.676651 -134.033765 0.013777 87.442278 -2.251587 -1.568887 -3.210261 -8.174519 -3.674134 31.965053 4.509746 20.708849 -31.579632 nan nan nan -3.918395 1.384203 -18.832983 1.842564 -9.746587 48.978901 1.464635 -14.070733 -25.550288 nan nan nan -2.545410 -1.944251 18.803517 1.469380 -4.098501 4.571864 0.521543 -1.711182 -1.662884 0.409091 4.048189 -0.621183 2.901748 3.701488 -1.915000 -25.244491 -4.840623 -1.604815 -54.426841 -13.169876 16.962754 7.913005 -31.216943 -7.117448 2.455639 -18.381589 1.110737 24.114162 6.689299 -0.549446 58.120616 -6.925176 14.938164 -8.079400 28.617917 5.055968 3.863634 14.668495 0.751481 
104.511276 -120.756310 88.281075 -133.714600 0.050854 87.252134 -2.169853 -1.708462 -2.740975 -8.483125 -3.987927 33.705879 4.194120 20.599360 -32.312152 nan nan nan -4.288716 1.502358 -20.929989 1.989137 -10.217389 48.687727 1.426633 -14.366623 -25.864993 nan nan nan -2.620755 -2.372433 19.675461 1.498448 -4.144916 3.773860 0.602369 -1.874110 -1.134344 0.292997 4.354326 -0.874468 3.077271 3.722657 -1.945624 -25.125490 -4.952947 -1.966034 -53.992371 -14.728682 16.554519 7.966080 -31.931481 -7.605740 2.908009 -18.851903 1.060316 24.178984 6.477876 -0.593510 58.052671 -7.340042 14.567800 -7.856414 27.749482 5.342043 4.054815 14.347150 1.110694 
103.462410 -119.622238 87.779305 -133.491148 0.024839 87.062674 -2.141406 -1.797699 -2.213373 -8.997072 -4.409649 35.276255 3.644094 20.805089 -32.890917 nan nan nan -4.646641 1.459041 -23.181354 2.007517 -10.481014 48.673194 1.319153 -14.899844 -26.319145 nan nan nan -2.712184 -2.601853 20.327772 1.494104 -4.175579 3.669454 0.676020 -2.154050 -1.065852 0.070001 4.272637 -1.011644 3.396845 4.257313 -1.947829 -25.677083 -5.736716 -1.699306 -51.821930 -14.877509 16.788819 9.526085 -35.682001 -8.033696 2.002714 -16.771080 2.229811 24.589967 6.687191 -0.675378 57.502458 -8.364538 14.528701 -7.791515 27.538475 4.716039 4.611470 13.320743 1.682403 
102.417114 -118.504501 87.267052 -133.106024 -0.041892 86.809674 -2.125729 -1.918845 -1.599641 -9.616182 -4.745674 36.831773 2.774438 20.812920 -33.483607 nan nan nan -5.063212 1.399820 -25.228799 1.854019 -10.877748 48.389448 1.025769 -15.260688 -26.776892 nan nan nan -2.895947 -2.873496 21.290598 1.559724 -4.179080 3.079994 0.829133 -2.405223 -0.728556 -0.118875 4.219063 -1.394729 3.602939 4.407614 -1.902656 -25.731403 -6.164052 -2.008545 -51.217000 -15.897809 17.093575 10.452344 -37.134207 -10.137303 3.904054 -17.031784 0.876323 24.935957 6.593660 -0.954967 56.821971 -9.173064 14.540611 -7.256227 26.917968 4.365346 3.954688 13.124045 2.234436 
101.399178 -117.396927 86.729042 -132.552627 -0.094913 86.645505 -2.043279 -2.054092 -1.200197 -10.073914 -5.011122 38.596858 2.050027 20.362505 -34.073901 nan nan nan -5.641959 1.236754 -27.338738 1.639728 -11.472679 48.120125 0.845186 -15.255435 -26.788946 nan nan nan -3.021087 -3.202968 22.263348 1.660946 -4.282659 2.590410 0.920982 -2.672845 -0.540980 -0.119129 4.520216 -1.899756 3.699766 4.245109 -1.851717 -25.694475 -6.421251 -2.427872 -50.701390 -17.320294 17.261667 11.170289 -38.316911 -11.750186 3.485848 -17.789193 -0.125608 25.281249 6.480302 -1.208073 56.260239 -9.939718 14.649082 -7.112398 26.228752 4.038682 4.321537 13.069094 2.511327 
100.391312 -116.280518 86.184891 -131.929376 -0.085964 86.487197 -1.887117 -2.178563 -0.807470 -10.458575 -5.397038 40.387898 1.639199 19.876591 -34.703077 nan nan nan -6.158532 0.928320 -29.402308 1.526727 -11.900099 47.823062 0.695447 -15.137768 -26.529173 nan nan nan -3.024525 -3.545902 23.222153 1.763573 -4.405839 2.234128 0.992392 -2.979849 -0.449804 -0.208145 4.727528 -2.443620 3.800004 4.146993 -1.825455 -25.717867 -6.788586 -2.707088 -50.025360 -18.651674 17.265752 12.242354 -39.630286 -13.296359 4.608176 -17.619476 -0.725521 25.622575 6.398853 -1.380994 55.737190 -10.641744 14.781907 -6.946269 25.520828 3.830844 4.057802 13.061707 2.618867 
